PathFileType	4	(X/Y/Z)	C:/Users/opensim2020/Desktop/walking_exp_matlab/subject02_walking11_straight_04.trc																																																																																																																												
DataRate	CameraRate	NumFrames	NumMarkers	Units	OrigDataRate	OrigDataStartFrame	OrigNumFrames																																																																																																																								
100	100	7	42	mm	100	3255	227																																																																																																																								
Frame#	Time	LFHD			RFHD			LBHD			RBHD			C7			T10			CLAV			STRN			RBAK			LSHO			LUPA			LELB			LFRM			LWRA			LWRB			LFIN			RSHO			RUPA			RELB			RFRM			RWRA			RWRB			RFIN			LASI			RASI			LPSI			RPSI			LTHI			LKNE			LTIB			LANK			LHEE			LTOE			RTHI			RKNE			RTIB			RANK			RHEE			RTOE			*39			*40			*41		
		X1	Y1	Z1	X2	Y2	Z2	X3	Y3	Z3	X4	Y4	Z4	X5	Y5	Z5	X6	Y6	Z6	X7	Y7	Z7	X8	Y8	Z8	X9	Y9	Z9	X10	Y10	Z10	X11	Y11	Z11	X12	Y12	Z12	X13	Y13	Z13	X14	Y14	Z14	X15	Y15	Z15	X16	Y16	Z16	X17	Y17	Z17	X18	Y18	Z18	X19	Y19	Z19	X20	Y20	Z20	X21	Y21	Z21	X22	Y22	Z22	X23	Y23	Z23	X24	Y24	Z24	X25	Y25	Z25	X26	Y26	Z26	X27	Y27	Z27	X28	Y28	Z28	X29	Y29	Z29	X30	Y30	Z30	X31	Y31	Z31	X32	Y32	Z32	X33	Y33	Z33	X34	Y34	Z34	X35	Y35	Z35	X36	Y36	Z36	X37	Y37	Z37	X38	Y38	Z38	X39	Y39	Z39	X40	Y40	Z40	X41	Y41	Z41	X42	Y42	Z42
																																																																																																																															
29	0.28	-559.40839	1753.46118	995.97955	-565.64221	1731.78503	1138.66272	-690.50562	1681.22388	980.66095	-709.31635	1658.96057	1122.39099	-749.96381	1539.65869	1055.65857	-807.39056	1264.84705	1067.10754	-612.099	1467.96008	1040.00549	-562.56134	1296.52783	1058.97083	-807.25848	1370.03235	1129.03503	-690.04089	1506.19751	873.73785	-737.00604	1311.2854	795.24786	-766.16516	1174.26086	786.53833	-785.92841	1045.08215	768.63983	-755.85052	908.66797	789.34399	-803.28943	922.89948	760.55292	-798.05157	855.36322	754.5791	-662.55273	1512.9176	1237.48181	-666.96155	1325.52539	1334.46057	-636.83789	1181.86206	1357.37781	-586.46606	1073.41357	1377.93774	-515.69348	958.17792	1360.49072	-559.36084	946.95337	1394.87561	-509.87122	893.91437	1398.52441	-566.82715	1002.82269	947.11267	-586.1748	985.1748	1202.25476	-782.13953	1047.01892	1010.94745	-794.43469	1047.19727	1125.83984	-581.84241	700.11536	863.42969	-564.15967	502.80087	883.22992	-641.08618	326.66541	889.16412	-662.85883	104.78286	914.0434	-688.06866	77.8623	972.79138	-523.44769	51.89542	873.13251	-678.96112	677.59814	1241.37402	-689.25439	469.2923	1188.76685	-738.77673	286.74786	1179.63904	-758.30603	96.54218	1128.90857	-787.1911	44.22792	1067.1814	-609.17578	41.07958	1160.17407	-663.08185	1818.93945	1083.52722	-2845.9021	1034.35229	3357.16919	NaN	NaN	NaN
30	0.29	-552.27545	1752.78223	996.0871	-557.75555	1731.6377	1138.88	-683.76343	1681.04834	981.64484	-701.67871	1659.17236	1123.67651	-742.97229	1539.53992	1057.33887	-800.74402	1264.82043	1068.27295	-605.26971	1467.84839	1041.24756	-555.78314	1296.20142	1060.44958	-800.16846	1370.27161	1131.26184	-683.90326	1505.7644	875.26843	-731.58972	1311.01563	797.28802	-761.1911	1174.07739	788.45343	-780.97443	1044.86462	770.49121	-750.37866	908.51526	790.26434	-798.35266	922.65613	762.49213	-792.67651	855.24506	756.05206	-654.81152	1513.38367	1239.21167	-657.71594	1325.90979	1336.23047	-626.05084	1182.66272	1359.50415	-574.172	1074.59802	1379.20947	-501.98203	960.4267	1361.17078	-545.26971	948.50854	1395.86548	-494.90338	896.02112	1399.00366	-559.69189	1002.46613	948.32361	-580.22327	984.2793	1203.46509	-775.4248	1047.07666	1011.25049	-788.15607	1047.30786	1126.04688	-573.75861	700.34442	864.4104	-555.0141	501.9704	885.34399	-624.14313	322.298	891.07764	-635.14874	99.22566	914.98462	-660.11047	71.51037	973.62994	-493.39984	52.28558	875.66461	-675.43005	677.3819	1241.3905	-687.26428	469.10309	1188.74182	-737.88519	286.88956	1179.46997	-758.099	96.73197	1128.70532	-786.96362	44.33274	1067.15991	-609.27661	40.88338	1160.26685	-655.2373	1818.83203	1083.99268	-2846.00122	1034.23572	3357.10474	NaN	NaN	NaN
31	0.3	-544.64551	1751.9259	996.5531	-549.78033	1731.29089	1139.09949	-677.11346	1680.58838	982.48969	-694.11877	1659.21313	1124.89819	-735.99011	1539.29675	1058.93567	-794.15326	1264.67896	1069.33569	-598.37598	1467.49927	1042.50977	-548.99878	1295.75818	1061.87915	-793.48395	1370.10156	1132.87476	-677.68158	1505.24243	876.78314	-725.92694	1310.66614	799.14441	-755.89551	1173.76392	790.54767	-775.87555	1044.5011	772.44537	-744.60162	908.38324	791.22412	-793.10992	922.26831	764.58179	-787.31818	855.18372	757.53943	-647.11121	1513.25854	1240.27173	-648.56635	1326.19885	1337.88367	-615.40009	1183.12866	1361.26123	-562.04297	1075.57959	1380.31396	-488.57678	962.47089	1361.57556	-531.41852	949.81018	1396.48694	-480.34601	898.29095	1399.32544	-552.66589	1001.98138	949.20068	-574.24402	983.47595	1204.39294	-768.60553	1046.90015	1011.46362	-781.75171	1047.28308	1126.2428	-565.82751	700.01129	865.31622	-546.26794	501.15811	887.60687	-607.5578	318.16556	892.72797	-607.92603	94.53944	915.90253	-632.15405	65.88574	974.27588	-463.62518	53.87777	877.98987	-671.82458	677.19135	1241.34546	-685.21997	468.95413	1188.73364	-736.8811	287.09863	1179.27625	-757.92114	96.96642	1128.48096	-786.87561	44.62195	1066.94702	-609.25165	40.85661	1160.44885	-647.51764	1818.66321	1084.44775	-2845.28003	1034.13562	3360.33228	NaN	NaN	NaN
32	0.31	-537.86786	1751.38098	996.34729	-541.99023	1731.04053	1139.33911	-669.84937	1679.77527	983.76563	-686.57849	1659.125	1126.05371	-728.97528	1538.94873	1060.49939	-787.54529	1264.40869	1070.27954	-591.43402	1466.88184	1043.85229	-542.16272	1295.1958	1063.1582	-786.08362	1369.79541	1134.37915	-671.35663	1504.64136	878.19495	-720.62494	1310.33521	800.95465	-750.40582	1173.28918	792.57996	-770.51862	1044.06396	774.67615	-738.57562	908.0412	792.13617	-787.27802	921.53461	766.62335	-781.70538	854.69543	759.10541	-639.56274	1513.20935	1241.64539	-639.59064	1326.22571	1339.35657	-604.93127	1183.42285	1362.90137	-549.98035	1076.47595	1381.33594	-475.14398	964.42065	1361.72961	-517.56909	951.15674	1397.23181	-465.80078	900.3548	1399.45154	-545.67084	1001.30005	949.73352	-568.12891	982.78662	1205.12366	-761.74597	1046.52673	1011.67853	-775.28687	1047.07874	1126.35925	-558.22925	699.76215	866.24805	-537.5954	500.26346	889.91852	-591.10992	314.37244	894.16736	-580.81384	90.73433	916.80676	-604.32123	60.98869	975.12323	-434.27472	56.45017	880.36078	-668.11639	676.98596	1241.27722	-683.00488	468.79175	1188.68811	-735.80621	287.28223	1179.07825	-757.70422	97.20243	1128.28491	-786.56848	44.82449	1066.62903	-609.30768	40.85407	1160.65417	-639.80566	1818.38892	1084.78894	-2845.9397	1034.21301	3357.27515	NaN	NaN	NaN
33	0.32	-530.79376	1750.17468	996.58179	-534.39459	1730.77405	1139.31677	-663.58362	1679.24646	984.36169	-679.05505	1658.94299	1127.18079	-721.93774	1538.4436	1061.91467	-780.89618	1264.0614	1071.08862	-584.58118	1466.44458	1044.91101	-535.31415	1294.52832	1064.32007	-779.67999	1369.55432	1136.05627	-664.88019	1503.98657	879.50934	-714.5672	1309.7052	802.73126	-744.57672	1172.68115	794.52612	-764.98077	1043.47156	776.27655	-732.26379	907.47491	793.11475	-781.36981	920.97577	768.44873	-775.84424	854.21167	760.61206	-631.99072	1512.79211	1242.77124	-630.78284	1325.8855	1340.33813	-594.64978	1183.51892	1364.47656	-538.16339	1077.24194	1382.37451	-462.1561	966.19049	1361.88623	-503.93698	952.30542	1397.75305	-451.47409	902.34198	1399.50745	-538.71777	1000.5036	950.19629	-562.04352	982.15802	1205.82117	-754.82593	1045.97461	1011.80981	-768.78979	1046.72632	1126.43481	-550.58374	699.11768	867.10553	-528.90924	499.27637	892.28534	-574.34589	310.88242	895.43652	-554.10364	87.70923	917.58313	-577.34302	56.9704	975.05322	-405.74161	59.91327	882.70685	-664.29816	676.78723	1241.20508	-680.63501	468.56601	1188.72021	-734.61517	287.47482	1178.88159	-757.46484	97.4679	1128.07507	-786.40466	45.19064	1066.50671	-609.3642	40.96408	1160.88257	-632.14581	1818.05688	1085.2135	-2845.2749	1034.20276	3360.32739	NaN	NaN	NaN
34	0.33	-524.0177	1749.4104	996.29401	-526.67139	1730.27051	1139.53101	-656.51825	1678.45593	985.32159	-671.58783	1658.56836	1128.2207	-714.93707	1537.88721	1063.34949	-774.21515	1263.60364	1071.83081	-577.63983	1465.77478	1046.05945	-528.46179	1293.78833	1065.37952	-772.01526	1368.91785	1137.06262	-658.28833	1503.23926	880.78247	-708.50281	1309.13135	804.27936	-738.60754	1172.08362	796.24878	-758.60419	1042.89856	777.9787	-725.71576	906.89435	794.00177	-775.44189	920.27081	770.42657	-769.43042	853.48615	762.15051	-624.45624	1512.35461	1244.14783	-622.15894	1325.69373	1342.01648	-584.54718	1183.50684	1366.04749	-526.53534	1077.8363	1383.26379	-449.23248	967.91412	1361.95264	-490.52814	953.37195	1398.172	-437.29849	904.19202	1399.35339	-531.75873	999.63159	950.50116	-555.60217	981.56958	1206.21863	-747.90277	1045.35596	1011.91534	-762.24646	1046.25916	1126.44604	-543.10535	698.23547	867.99652	-520.24933	498.26147	894.52252	-557.62305	307.91705	896.5918	-527.91559	85.61291	918.0625	-549.47144	53.54451	975.98792	-377.73306	64.05473	885.14392	-660.2655	676.55548	1241.10791	-678.03766	468.34824	1188.69556	-733.3999	287.68759	1178.47559	-757.11609	97.66866	1127.84326	-786.25037	45.4361	1066.18616	-609.35254	40.96289	1161.07727	-624.79492	1817.51563	1085.27844	-2845.85938	1034.24829	3357.17993	NaN	NaN	NaN
35	0.34	-516.87726	1748.24561	996.62268	-519.26196	1729.87329	1139.48828	-649.84503	1677.37573	986.02551	-664.14856	1658.05518	1129.16309	-707.80859	1537.27429	1064.61499	-767.48706	1263.04028	1072.44568	-570.71008	1465.03064	1047.08643	-521.57239	1292.98877	1066.31677	-765.42072	1368.51941	1138.6947	-651.76892	1502.52124	881.96588	-701.93872	1308.36584	805.82373	-732.13416	1171.22876	798.02777	-752.11182	1041.89966	779.7453	-718.9884	906.15814	795.06403	-768.84381	919.31317	772.19067	-763.17609	852.82861	763.64764	-616.9046	1511.17432	1244.52747	-613.7417	1325.0304	1343.10754	-574.63867	1183.12891	1367.30701	-515.0838	1078.40784	1384.20154	-436.55383	969.47339	1361.85803	-477.25656	954.30786	1398.45618	-423.32709	905.93427	1399.15173	-524.81622	998.64319	950.68433	-549.20917	980.93329	1206.49878	-740.9505	1044.60278	1011.95477	-755.75769	1045.68042	1126.38196	-535.93304	697.22937	868.81305	-511.32257	497.29163	896.56647	-541.02814	305.48798	897.62524	-502.03995	84.31004	918.54114	-523.56281	51.25683	975.9884	-350.64151	68.75069	887.86823	-655.97522	676.24524	1241.00281	-675.24005	468.05396	1188.65894	-731.8324	287.86105	1178.51294	-756.74481	97.95923	1127.677	-786.07904	45.74225	1065.73901	-609.35052	40.9303	1161.21863	-617.49475	1816.77991	1085.36133	-2845.78833	1034.2749	3357.20361	NaN	NaN	NaN
